<?xml version="1.0" standalone="no"?>
<!DOCTYPE svg PUBLIC "-//W3C//DTD SVG 20010904//EN"
 "http://www.w3.org/TR/2001/REC-SVG-20010904/DTD/svg10.dtd">
<svg version="1.0" xmlns="http://www.w3.org/2000/svg"
 width="180.000000pt" height="180.000000pt" viewBox="0 0 180.000000 180.000000"
 preserveAspectRatio="xMidYMid meet">
<metadata>
Created by potrace 1.11, written by Peter Selinger 2001-2013
</metadata>
<g transform="translate(0.000000,180.000000) scale(0.100000,-0.100000)"
fill="#000000" stroke="none">
<path d="M0 900 l0 -900 900 0 900 0 0 900 0 900 -900 0 -900 0 0 -900z m467
608 c5 -7 58 -119 117 -248 59 -129 111 -238 115 -242 3 -4 55 102 115 237 60
134 112 247 117 252 4 4 33 6 63 5 l56 -4 0 -149 0 -149 135 0 135 0 0 150 0
150 50 0 50 0 0 -335 0 -335 -50 0 -50 0 0 170 0 170 -136 0 -136 0 3 -47 c1
-27 2 -103 1 -170 l-2 -123 -65 0 -65 0 -2 276 -3 276 -114 -274 c-63 -150
-117 -276 -121 -281 -3 -4 -64 117 -136 270 l-129 276 -5 -269 c-5 -246 -7
-269 -22 -272 -17 -3 -18 18 -18 331 0 183 3 337 7 340 11 12 80 8 90 -5z
m-137 -895 c-78 -8 -80 -10 -80 -58 l0 -45 48 -2 47 -1 -45 -6 -45 -6 0 -50 0
-50 53 -3 c28 -2 52 -7 52 -13 0 -13 -124 -11 -138 3 -16 16 -16 210 0 226 7
7 38 11 78 10 36 0 49 -3 30 -5z m127 -78 c19 -44 38 -84 42 -88 4 -4 25 33
46 83 42 101 67 125 29 28 -58 -148 -77 -189 -87 -185 -9 3 -107 222 -107 240
0 5 10 7 22 5 16 -2 29 -22 55 -83z m318 80 c-5 -2 -31 -6 -57 -10 l-48 -6 0
-45 0 -44 48 -1 47 -2 -47 -10 -48 -10 0 -48 c0 -52 1 -53 75 -62 17 -2 0 -5
-37 -6 -57 -1 -69 2 -78 18 -14 28 -13 204 2 219 7 7 40 12 83 11 38 0 66 -2
60 -4z m145 -75 c30 -44 58 -79 62 -80 4 0 9 37 11 83 2 63 3 53 5 -45 1 -71
0 -128 -2 -128 -2 0 -37 46 -78 103 l-73 102 -6 -100 c-3 -55 -6 -95 -8 -90
-7 30 -12 173 -6 202 10 53 34 41 95 -47z m255 71 l-30 -6 -3 -118 c-2 -109
-4 -117 -22 -117 -19 0 -20 7 -20 119 l0 120 -32 4 c-18 2 5 4 52 4 48 0 72
-2 55 -6z m205 -7 c0 -8 -25 -58 -56 -110 -31 -52 -55 -96 -53 -98 2 -3 31 -9
64 -14 l60 -10 -81 -1 c-44 0 -83 2 -87 5 -7 8 19 60 73 149 45 73 42 82 -35
88 -35 2 -26 4 33 5 69 2 82 -1 82 -14z m205 5 c4 -5 -19 -53 -50 -105 -31
-51 -55 -100 -52 -108 4 -10 25 -16 59 -19 40 -2 33 -4 -29 -5 -63 -2 -83 1
-83 11 0 7 25 55 55 107 31 51 54 99 51 106 -3 8 -28 14 -63 17 -49 3 -46 4
24 5 49 1 84 -2 88 -9z"/>
</g>
</svg>
